# xmcd CD database file
#
# Track frame offsets:
#	150
#	19761
#	35493
#	57175
#	78843
#	97070
#	116203
#	135905
#	152968
#	169978
#	184143
#	201030
#
# Disc length: 2921 seconds
#
# Revision: 2
# Processed by: cddbd v1.4b41PL1 Copyright (c) Steve Scherf et al.
# Submitted via: Feurio! 1.50.2ß - http://www.feurio.com
#
DISCID=9e0b670c
DTITLE=Toni Braxton - The Heat
DYEAR=1900
DGENRE=
TTITLE0=He Wasn't Man Enough
TTITLE1=Heat, The
TTITLE2=Spanish Guitar
TTITLE3=Just Be A Man About It - featuring Dr. Dre
TTITLE4=Gimme Some
TTITLE5=I'm Still Breathing
TTITLE6=Fairy Tale
TTITLE7=Art of Love, The
TTITLE8=Speaking In Tongues
TTITLE9=Maybe
TTITLE10=You've Been Wrong
TTITLE11=Never Just for a Ring
EXTD=
EXTT0=
EXTT1=
EXTT2=
EXTT3=
EXTT4=
EXTT5=
EXTT6=
EXTT7=
EXTT8=
EXTT9=
EXTT10=
EXTT11=
PLAYORDER=
